<?xml version="1.0" encoding="utf-8"?>
<!DOCTYPE svg PUBLIC "-//W3C//DTD SVG 1.1//EN" "http://www.w3.org/Graphics/SVG/1.1/DTD/svg11.dtd" [
	<!ENTITY ns_flows "http://ns.adobe.com/Flows/1.0/">
]>
<svg version="1.1"
	 xmlns="http://www.w3.org/2000/svg"
	 x="0px" y="0px" width="477px" height="306px" viewBox="0 0 477 306" overflow="visible" enable-background="new 0 0 477 306"
	 xml:space="preserve">
<defs>
</defs>
<polygon fill="#FFFFFF" points="31.971,96.363 31.584,96.363 31.584,143.298 0,143.298 0,144.298 6,150.298 38.584,150.298
	38.584,112.365 "/>
<path fill="#FFFFFF" d="M66.511,92.695c1.68,0,4.007-0.872,6.983-2.618c2.973-1.746,5.916-4.332,8.824-7.758
	c2.911-3.424,5.432-7.66,7.566-12.703c2.131-5.044,3.198-10.794,3.198-17.263c0-6.206-0.712-12.121-2.134-17.747
	c-1.424-5.624-3.782-10.536-7.077-14.74c-0.93-1.184-1.957-2.294-3.061-3.345c-0.326-0.339-0.657-0.674-1-1
	c-0.326-0.339-0.657-0.674-1-1c-0.326-0.339-0.657-0.674-1-1c-0.326-0.339-0.657-0.674-1-1c-0.326-0.339-0.657-0.674-1-1
	c-0.264-0.275-0.541-0.54-0.815-0.807c0.656,0.694,1.29,1.405,1.876,2.152c3.295,4.204,5.652,9.116,7.077,14.74
	c1.422,5.626,2.134,11.541,2.134,17.747c0,6.468-1.067,12.219-3.198,17.263c-2.134,5.042-4.656,9.278-7.566,12.703
	c-2.908,3.427-5.852,6.013-8.824,7.758c-2.976,1.746-5.303,2.618-6.983,2.618l29.287,57.603H51.954l0.413,1l6,6h37.431
	L66.511,92.695z"/>
<polygon fill="#FFFFFF" points="189.68,0 188.68,0 188.68,31.582 132.824,31.582 132.824,54.857 139.824,54.857 139.824,38.582
	195.68,38.582 195.68,6 "/>
<polygon fill="#FFFFFF" points="132.824,110.714 139.824,110.714 139.824,94.44 180.94,94.44 180.94,61.857 174.94,55.857
	173.94,55.857 173.94,87.44 132.824,87.44 "/>
<polygon fill="#FFFFFF" points="188.68,111.714 188.68,143.298 101.239,143.298 101.239,144.298 107.239,150.298 195.68,150.298
	195.68,117.714 189.68,111.714 "/>
<path fill="#FFFFFF" d="M274.21,20.14c1.68,4.14,2.521,8.601,2.521,13.383c0,5.042-0.677,9.633-2.034,13.77
	c-1.357,4.139-3.104,7.695-5.239,10.668c-2.131,2.975-4.493,5.303-7.077,6.983c-2.588,1.681-5.042,2.521-7.369,2.521
	c5.816,0,10.729,1.196,14.739,3.588c0.158,0.094,0.308,0.196,0.463,0.292c2.259-1.621,4.347-3.735,6.244-6.384
	c2.135-2.973,3.882-6.529,5.239-10.668c1.357-4.137,2.034-8.728,2.034-13.77c0-4.782-0.841-9.243-2.521-13.383
	c-1.6-3.937-3.97-7.401-7.094-10.403c-0.323-0.339-0.658-0.671-1-1c-0.323-0.339-0.658-0.671-1-1c-0.323-0.339-0.658-0.671-1-1
	c-0.323-0.339-0.658-0.671-1-1c-0.323-0.339-0.658-0.671-1-1c-0.29-0.305-0.6-0.598-0.902-0.895
	C270.799,13.581,272.803,16.677,274.21,20.14z"/>
<path fill="#FFFFFF" d="M292.071,98.901c-1.164-4.267-3.005-8.21-5.526-11.831c-1.143-1.64-2.447-3.147-3.896-4.536
	c-0.324-0.341-0.659-0.673-1-1c-0.324-0.341-0.659-0.673-1-1c-0.324-0.341-0.659-0.673-1-1c-0.324-0.341-0.659-0.673-1-1
	c-0.324-0.341-0.659-0.673-1-1c-0.26-0.272-0.539-0.529-0.809-0.793c0.978,1.047,1.885,2.152,2.705,3.329
	c2.521,3.621,4.362,7.563,5.526,11.831c1.164,4.269,1.747,8.214,1.747,11.832c0,5.303-0.81,10.345-2.425,15.127
	c-1.618,4.786-4.01,9.021-7.177,12.706c-3.171,3.685-7.146,6.593-11.928,8.728c-4.785,2.133-10.346,3.2-16.681,3.2h-0.968h-45.161v1
	l6,6h46.161h0.968c6.335,0,11.896-1.067,16.681-3.2c4.781-2.134,8.757-5.042,11.928-8.728c3.167-3.685,5.559-7.92,7.177-12.706
	c1.615-4.782,2.425-9.824,2.425-15.127C293.818,107.115,293.235,103.169,292.071,98.901z"/>
<polygon fill="#FFFFFF" points="386.924,0 385.924,0 385.924,31.582 330.068,31.582 330.068,54.857 337.068,54.857 337.068,38.582
	392.924,38.582 392.924,6 "/>
<polygon fill="#FFFFFF" points="330.068,110.714 337.068,110.714 337.068,94.44 378.184,94.44 378.184,61.857 372.184,55.857
	371.184,55.857 371.184,87.44 330.068,87.44 "/>
<polygon fill="#FFFFFF" points="385.924,111.714 385.924,143.298 298.483,143.298 298.483,144.298 304.483,150.298 392.924,150.298
	392.924,117.714 386.924,111.714 "/>
<polygon fill="#FFFFFF" points="431.308,110.714 438.308,110.714 438.308,6 432.308,0 431.308,0 "/>
<polygon fill="#FFFFFF" points="470.902,111.714 469.902,111.714 469.902,143.298 399.724,143.298 399.724,144.298 405.724,150.298
	476.902,150.298 476.902,117.714 "/>
<polygon fill="#FFFFFF" points="31.584,210.365 38.584,210.365 38.584,161.507 32.584,155.507 31.584,155.507 "/>
<polygon fill="#FFFFFF" points="103.763,155.507 102.763,155.507 102.763,298.807 71.179,298.807 71.179,299.807 77.179,305.807
	109.763,305.807 109.763,161.507 "/>
<polygon fill="#FFFFFF" points="70.179,242.949 31.584,242.949 31.584,298.807 0,298.807 0,299.807 6,305.807 38.584,305.807
	38.584,249.949 70.179,249.949 "/>
<polygon fill="#FFFFFF" points="152.833,155.507 151.833,155.507 151.833,298.807 120.248,298.807 120.248,299.807 126.248,305.807
	158.833,305.807 158.833,161.507 "/>
<path fill="#FFFFFF" d="M255.42,188.952c-1.94-5.752-4.688-10.668-8.244-14.74c-0.673-0.77-1.381-1.496-2.106-2.199
	c-0.326-0.342-0.662-0.672-1-1c-0.326-0.342-0.662-0.672-1-1c-0.326-0.342-0.662-0.672-1-1c-0.326-0.342-0.662-0.672-1-1
	c-0.326-0.342-0.662-0.672-1-1c-0.314-0.33-0.64-0.646-0.965-0.962c0.362,0.381,0.723,0.763,1.071,1.161
	c3.557,4.072,6.304,8.988,8.244,14.74c1.938,5.754,2.908,12.188,2.908,19.298c0,6.982-0.971,13.318-2.908,19.006
	c-1.94,5.693-4.688,10.604-8.244,14.74c-3.559,4.141-7.854,7.34-12.898,9.601c-5.042,2.265-10.666,3.395-16.872,3.395h-0.196
	h-10.666v50.815h-32.165v1l6,6h33.165v-50.815h10.666h0.196c6.207,0,11.83-1.13,16.872-3.395c5.045-2.26,9.34-5.46,12.898-9.601
	c3.557-4.137,6.304-9.047,8.244-14.74c1.938-5.688,2.908-12.024,2.908-19.006C258.328,201.14,257.357,194.706,255.42,188.952z"/>
<path fill="#FFFFFF" d="M352.975,188.952c-1.938-5.752-4.688-10.668-8.241-14.74c-0.672-0.77-1.38-1.495-2.104-2.197
	c-0.327-0.342-0.662-0.673-1-1c-0.327-0.342-0.662-0.673-1-1c-0.327-0.342-0.662-0.673-1-1c-0.327-0.342-0.662-0.673-1-1
	c-0.327-0.342-0.662-0.673-1-1c-0.315-0.33-0.642-0.647-0.967-0.964c0.362,0.381,0.724,0.763,1.071,1.161
	c3.554,4.072,6.304,8.988,8.241,14.74c1.94,5.754,2.911,12.188,2.911,19.298c0,6.982-0.971,13.318-2.911,19.006
	c-1.938,5.693-4.688,10.604-8.241,14.74c-3.559,4.141-7.856,7.34-12.898,9.601c-5.042,2.265-10.668,3.395-16.874,3.395h-0.193H297.1
	v50.815h-32.166v1l6,6H304.1v-50.815h10.668h0.193c6.206,0,11.832-1.13,16.874-3.395c5.042-2.26,9.34-5.46,12.898-9.601
	c3.554-4.137,6.304-9.047,8.241-14.74c1.94-5.688,2.911-12.024,2.911-19.006C355.886,201.14,354.915,194.706,352.975,188.952z"/>
<path fill="#FFFFFF" d="M473.218,195.448c-2.325-6.207-5.816-11.765-10.472-16.68c-0.327-0.343-0.667-0.667-1-1
	c-0.327-0.343-0.667-0.667-1-1c-0.008-0.008-0.016-0.016-0.023-0.023c-0.32-0.335-0.651-0.651-0.977-0.977
	c-0.008-0.008-0.016-0.016-0.023-0.023c-0.32-0.335-0.651-0.651-0.977-0.977c-0.008-0.008-0.016-0.016-0.023-0.023
	c-0.32-0.335-0.651-0.651-0.977-0.977c-0.008-0.008-0.016-0.016-0.023-0.023c-0.32-0.335-0.651-0.651-0.977-0.977
	c-0.008-0.008-0.016-0.016-0.023-0.023c-0.32-0.335-0.651-0.652-0.977-0.977c4.655,4.915,8.146,10.473,10.472,16.68
	c2.328,6.206,3.556,12.607,3.685,19.202v33.747c0,6.982-1.063,14.062-3.198,21.238c-2.134,7.177-5.789,13.479-10.958,18.911
	c-5.304,5.691-11.346,10.021-18.135,12.994c-6.79,2.976-13.999,4.461-21.627,4.461h-0.193c-7.499,0-14.644-1.485-21.43-4.461
	c-6.435-2.816-12.249-6.811-17.461-11.951c0.046,0.049,0.087,0.102,0.133,0.151c0.284,0.292,0.579,0.565,0.867,0.849
	c0.046,0.05,0.087,0.102,0.133,0.151c0.284,0.292,0.579,0.565,0.867,0.849c0.046,0.05,0.087,0.102,0.133,0.151
	c0.284,0.292,0.579,0.565,0.867,0.849c0.046,0.05,0.087,0.102,0.133,0.151c0.284,0.292,0.579,0.565,0.867,0.849
	c0.046,0.05,0.087,0.102,0.133,0.151c0.284,0.292,0.579,0.565,0.867,0.849c0.046,0.05,0.087,0.102,0.133,0.151
	c0.284,0.292,0.579,0.565,0.867,0.849c0.046,0.05,0.087,0.102,0.133,0.151c5.429,5.561,11.538,9.829,18.328,12.8
	c6.786,2.976,13.931,4.461,21.43,4.461h0.193c7.628,0,14.837-1.485,21.627-4.461c6.789-2.972,12.831-7.302,18.135-12.994
	c5.169-5.431,8.824-11.734,10.958-18.911c2.135-7.176,3.198-14.256,3.198-21.238V214.65
	C476.773,208.055,475.546,201.654,473.218,195.448z"/>
</svg>
